<?xml version="1.0" encoding="UTF-8" standalone="no"?>
<svg
   width="88.684mm"
   height="62.186mm"
   version="1.1"
   viewBox="0 0 88.684 62.186"
   xml:space="preserve"
   id="svg366"
   sodipodi:docname="card.svg"
   inkscape:version="1.2.2 (b0a8486541, 2022-12-01)"
   xmlns:inkscape="http://www.inkscape.org/namespaces/inkscape"
   xmlns:sodipodi="http://sodipodi.sourceforge.net/DTD/sodipodi-0.dtd"
   xmlns="http://www.w3.org/2000/svg"
   xmlns:svg="http://www.w3.org/2000/svg"><defs
   id="defs370" /><sodipodi:namedview
   id="namedview368"
   pagecolor="#505050"
   bordercolor="#eeeeee"
   borderopacity="1"
   inkscape:showpageshadow="0"
   inkscape:pageopacity="0"
   inkscape:pagecheckerboard="0"
   inkscape:deskcolor="#505050"
   inkscape:document-units="mm"
   showgrid="false"
   showguides="true"
   inkscape:zoom="2.674222"
   inkscape:cx="176.6869"
   inkscape:cy="122.27855"
   inkscape:window-width="1920"
   inkscape:window-height="1031"
   inkscape:window-x="0"
   inkscape:window-y="0"
   inkscape:window-maximized="1"
   inkscape:current-layer="g364"><sodipodi:guide
     position="44.34755,30.303974"
     orientation="1,0"
     id="guide700"
     inkscape:locked="false" /><sodipodi:guide
     position="44.323118,29.595472"
     orientation="0,-1"
     id="guide702"
     inkscape:locked="false" /></sodipodi:namedview><g
   transform="translate(-58.947 -94.125)"
   id="g364"><path
     d="m61.375 105.82c6.0027-5.4304 22.666-9.2708 41.914-9.2708 19.248 0 35.779 3.8977 41.914 9.2708v48.06h-83.829z"
     fill="#b1b1b1"
     opacity=".997"
     stroke="#b1b1b1"
     stroke-linecap="round"
     stroke-linejoin="round"
     stroke-width="4.8555"
     style="paint-order:markers fill stroke"
     id="path348" /><rect
     x="85.683"
     y="107.06"
     width="35.213"
     height="39.353"
     fill="#929292"
     opacity=".997"
     stroke="#929292"
     stroke-linecap="square"
     stroke-linejoin="round"
     stroke-width="5.4149"
     style="paint-order:markers fill stroke"
     id="rect350" /><path
     d="m140.9 155.59v-16.188l6.015-3.7622"
     fill="none"
     stroke="#929292"
     stroke-linecap="round"
     stroke-linejoin="round"
     id="path352" /><path
     d="m127.3 100.74v53.149"
     fill="none"
     stroke="#929292"
     stroke-linecap="round"
     stroke-width=".78576"
     id="path354" /><path
     d="m79.281 100.74v53.149"
     fill="none"
     stroke="#929292"
     stroke-linecap="round"
     stroke-width=".78576"
     id="path356" /><path
     d="m65.767 155.59v-16.188l-6.015-3.7622"
     fill="none"
     stroke="#929292"
     stroke-linecap="round"
     stroke-linejoin="round"
     id="path358" /><path
     id="path3235"
     style="opacity:0.997;fill:#929292;fill-opacity:1;stroke-width:0.246793;stroke-linejoin:round"
     d="m 102.58296,133.01091 c 0,1.51069 1.16375,2.73534 2.5993,2.73534 2.60748,0 2.5993,0.0387 2.5993,-2.73534 0,-1.51068 -1.16375,-2.73534 -2.5993,-2.73534 -2.59333,0 -2.5993,-0.13774 -2.5993,2.73534 z"
     sodipodi:nodetypes="sssss" /><path
     id="path3312"
     style="opacity:0.997;fill:#929292;fill-opacity:1;stroke-width:0.246793;stroke-linejoin:round"
     d="m 115.63006,133.01127 c 0,1.51068 -1.16375,2.73534 -2.59931,2.73534 -2.60747,0 -2.59929,0.0387 -2.59929,-2.73534 0,-1.51068 1.16374,-2.73534 2.59929,-2.73534 2.59334,0 2.59931,-0.13774 2.59931,2.73534 z"
     sodipodi:nodetypes="sssss" /><rect
     style="fill:#d1d1d1;stroke:#d1d1d1;stroke-width:2.43159;stroke-linecap:round;stroke-linejoin:round;stroke-opacity:1"
     id="rect9156"
     width="3.3296745"
     height="16.9722"
     x="101.56696"
     y="118.2686" /><rect
     style="fill:#d1d1d1;stroke:#d1d1d1;stroke-width:2.43159;stroke-linecap:round;stroke-linejoin:round;stroke-opacity:1"
     id="rect9552"
     width="3.3296745"
     height="16.9722"
     x="125.08987"
     y="-111.7179"
     transform="rotate(90)" /></g>
</svg>
