<?xml version="1.0" encoding="UTF-8"?>
<svg width="88.684mm" height="62.186mm" version="1.1" viewBox="0 0 88.684 62.186" xml:space="preserve" xmlns="http://www.w3.org/2000/svg"><g transform="translate(-58.947 -94.125)"><path d="m61.375 105.83c6.0027-5.4304 22.666-9.2708 41.914-9.2708 19.248 0 35.779 3.8977 41.914 9.2708v48.06h-83.829z" fill="#e79f35" opacity=".997" stroke="#e79f35" stroke-linecap="round" stroke-linejoin="round" stroke-width="4.8555" style="paint-order:markers fill stroke"/><rect x="85.683" y="107.06" width="35.213" height="39.353" fill="#bf7d1b" opacity=".997" stroke="#bf7d1b" stroke-linecap="square" stroke-linejoin="round" stroke-width="5.4149" style="paint-order:markers fill stroke"/><path d="m140.9 155.59v-16.188l6.015-3.7622" fill="none" stroke="#bf7d1b" stroke-linecap="round" stroke-linejoin="round"/><path d="m127.3 100.75v53.149" fill="none" stroke="#bf7d1b" stroke-linecap="round" stroke-width=".78576"/><path d="m79.281 100.75v53.149" fill="none" stroke="#bf7d1b" stroke-linecap="round" stroke-width=".78576"/><path d="m65.767 155.59v-16.188l-6.015-3.7622" fill="none" stroke="#bf7d1b" stroke-linecap="round" stroke-linejoin="round"/><circle cx="103.28" cy="126.69" r="9.433" fill="none" opacity=".997" stroke="#e79f35" stroke-linecap="round" stroke-linejoin="round" stroke-width="2.0176" style="paint-order:markers fill stroke"/><rect x="100.91" y="113.26" width="4.7384" height="27.695" fill="#bf7d1b" opacity=".997" style="paint-order:markers fill stroke"/><path transform="matrix(.25415 0 0 .25415 61.827 99.708)" d="m172.77 79.297-15.548-8.9765 15.548-8.9765z" fill="#e79f35" opacity=".997" stroke="#e79f35" stroke-linecap="round" stroke-linejoin="round" stroke-width="1.5118" style="paint-order:markers fill stroke"/><path transform="matrix(-.25415 0 0 .25415 144.74 118)" d="m172.77 79.297-15.548-8.9765 15.548-8.9765z" fill="#e79f35" opacity=".997" stroke="#e79f35" stroke-linecap="round" stroke-linejoin="round" stroke-width="1.5118" style="paint-order:markers fill stroke"/></g></svg>
